<svg width="20" height="20" viewBox="0 0 20 20" fill="none" xmlns="http://www.w3.org/2000/svg">
<g clip-path="url(#clip0_4040_11666)">
<mask id="mask0_4040_11666" style="mask-type:luminance" maskUnits="userSpaceOnUse" x="0" y="0" width="20" height="20">
<path d="M20 0H0V20H20V0Z" fill="white"/>
</mask>
<g mask="url(#mask0_4040_11666)">
<path fill-rule="evenodd" clip-rule="evenodd" d="M3.72656 6.8435C3.72656 5.12204 5.12206 3.72656 6.84348 3.72656H13.1563C14.8777 3.72656 16.2732 5.12204 16.2732 6.8435V13.1563C16.2732 14.8777 14.8777 16.2732 13.1563 16.2732H6.84348C5.12206 16.2732 3.72656 14.8777 3.72656 13.1563V6.8435ZM6.84348 4.69979C5.65956 4.69979 4.69977 5.65954 4.69977 6.8435V13.1563C4.69977 14.3402 5.65956 15.3 6.84348 15.3H13.1563C14.3402 15.3 15.3 14.3402 15.3 13.1563V6.8435C15.3 5.65954 14.3402 4.69979 13.1563 4.69979H6.84348Z" fill="#2E334C"/>
<path fill-rule="evenodd" clip-rule="evenodd" d="M8.76682 1.31998C8.76682 1.05124 8.9847 0.833374 9.25345 0.833374H10.744C11.0127 0.833374 11.2306 1.05124 11.2306 1.31998C11.2306 1.58873 11.0127 1.80659 10.744 1.80659H9.25345C8.9847 1.80659 8.76682 1.58873 8.76682 1.31998ZM3.35092 1.89296C3.51467 2.10605 3.47468 2.41155 3.26158 2.57531C3.00357 2.77358 2.77224 3.00491 2.57396 3.26292C2.41021 3.47602 2.10471 3.51601 1.89162 3.35226C1.67852 3.18851 1.63853 2.88301 1.80228 2.66991C2.05209 2.34484 2.34349 2.05343 2.66857 1.80362C2.88167 1.63986 3.18716 1.67987 3.35092 1.89296ZM16.6465 1.89296C16.8103 1.67987 17.1158 1.63987 17.3288 1.80362C17.6539 2.05344 17.9453 2.34484 18.1951 2.66991C18.3589 2.88301 18.3189 3.18851 18.1058 3.35226C17.8927 3.51601 17.5872 3.47602 17.4235 3.26292C17.2252 3.00491 16.9938 2.77358 16.7358 2.57531C16.5228 2.41155 16.4828 2.10605 16.6465 1.89296ZM18.6788 8.76816C18.9475 8.76816 19.1654 8.98604 19.1654 9.25479V10.7453C19.1654 11.014 18.9475 11.2319 18.6788 11.2319C18.41 11.2319 18.1922 11.014 18.1922 10.7453V9.25479C18.1922 8.98604 18.41 8.76816 18.6788 8.76816ZM1.31864 8.76816C1.58739 8.76816 1.80525 8.98604 1.80525 9.25479V10.7453C1.80525 11.014 1.58739 11.2319 1.31864 11.2319C1.04989 11.2319 0.832031 11.014 0.832031 10.7453V9.25479C0.832031 8.98604 1.04989 8.76816 1.31864 8.76816ZM1.89162 16.6478C2.10471 16.484 2.41021 16.524 2.57396 16.7371C2.77224 16.9951 3.00357 17.2265 3.26158 17.4248C3.47468 17.5885 3.51467 17.894 3.35092 18.1071C3.18716 18.3202 2.88167 18.3602 2.66857 18.1964C2.34349 17.9466 2.05209 17.6552 1.80228 17.3301C1.63852 17.117 1.67852 16.8115 1.89162 16.6478ZM18.1058 16.6478C18.3189 16.8115 18.3589 17.117 18.1951 17.3301C17.9453 17.6552 17.6539 17.9466 17.3288 18.1964C17.1158 18.3602 16.8103 18.3202 16.6465 18.1071C16.4828 17.894 16.5228 17.5885 16.7358 17.4248C16.9938 17.2265 17.2252 16.9951 17.4235 16.7371C17.5872 16.524 17.8927 16.484 18.1058 16.6478ZM8.76682 18.68C8.76682 18.4113 8.9847 18.1935 9.25345 18.1935H10.744C11.0127 18.1935 11.2306 18.4113 11.2306 18.68C11.2306 18.9488 11.0127 19.1667 10.744 19.1667H9.25345C8.9847 19.1667 8.76682 18.9488 8.76682 18.68Z" fill="#2E334C"/>
<path fill-rule="evenodd" clip-rule="evenodd" d="M7.02927 9.12983C7.20956 8.94954 7.49844 8.93899 7.69139 9.10562L14.3923 14.8923C14.5957 15.068 14.6182 15.3753 14.4426 15.5787C14.2669 15.7821 13.9596 15.8046 13.7562 15.6289L7.39764 10.1378L4.68614 12.8493C4.4961 13.0393 4.18802 13.0393 3.99799 12.8493C3.80796 12.6593 3.80796 12.3512 3.99799 12.1611L7.02927 9.12983Z" fill="#2E334C"/>
<path fill-rule="evenodd" clip-rule="evenodd" d="M11.277 9.11487C11.4601 8.94741 11.7398 8.9445 11.9263 9.10804L15.9757 12.659C16.1777 12.8362 16.1979 13.1436 16.0207 13.3457C15.8435 13.5478 15.536 13.5679 15.334 13.3907L11.6124 10.1271L10.065 11.5427C9.86676 11.724 9.55897 11.7104 9.37759 11.5121C9.19617 11.3138 9.20988 11.006 9.40817 10.8246L11.277 9.11487Z" fill="#2E334C"/>
<path fill-rule="evenodd" clip-rule="evenodd" d="M9.34212 7.93524C8.95717 7.93524 8.64512 7.6232 8.64512 7.23824C8.64512 6.85328 8.95717 6.5412 9.34212 6.5412C9.72708 6.5412 10.0392 6.85328 10.0392 7.23824C10.0392 7.6232 9.72708 7.93524 9.34212 7.93524ZM7.67188 7.23824C7.67188 8.1607 8.41966 8.90849 9.34212 8.90849C10.2646 8.90849 11.0124 8.1607 11.0124 7.23824C11.0124 6.31578 10.2646 5.56799 9.34212 5.56799C8.41966 5.56799 7.67188 6.31578 7.67188 7.23824Z" fill="#2E334C"/>
<path d="M18.6784 12.6315C18.9472 12.6315 19.1651 12.8494 19.1651 13.1181V13.8634C19.1651 14.0708 19.1516 14.2753 19.1254 14.476C19.0906 14.7425 18.8464 14.9303 18.5799 14.8956C18.3134 14.8608 18.1256 14.6166 18.1604 14.3501C18.1811 14.1911 18.1919 14.0286 18.1919 13.8634V13.1181C18.1919 12.8494 18.4097 12.6315 18.6784 12.6315Z" fill="#2E334C"/>
<path d="M1.31864 12.6315C1.58739 12.6315 1.80525 12.8494 1.80525 13.1181V13.8634C1.80525 14.0286 1.81598 14.1911 1.83674 14.3501C1.87149 14.6166 1.68364 14.8608 1.41715 14.8956C1.15067 14.9303 0.906452 14.7425 0.871689 14.476C0.84551 14.2753 0.832031 14.0708 0.832031 13.8634V13.1181C0.832031 12.8494 1.04989 12.6315 1.31864 12.6315Z" fill="#2E334C"/>
<path d="M1.41715 4.80211C1.68364 4.83686 1.87149 5.08107 1.83674 5.34757C1.81598 5.50666 1.80525 5.66911 1.80525 5.83428V6.57957C1.80525 6.84832 1.58739 7.06616 1.31864 7.06616C1.04989 7.06616 0.832031 6.84832 0.832031 6.57957V5.83428C0.832031 5.62691 0.84551 5.42241 0.871689 5.2217C0.906452 4.9552 1.15067 4.76736 1.41715 4.80211Z" fill="#2E334C"/>
<path d="M18.5799 4.80211C18.8464 4.76736 19.0906 4.9552 19.1254 5.2217C19.1516 5.42241 19.1651 5.62691 19.1651 5.83428V6.57957C19.1651 6.84832 18.9472 7.06616 18.6784 7.06616C18.4097 7.06616 18.1919 6.84832 18.1919 6.57957V5.83428C18.1919 5.66911 18.1811 5.50666 18.1604 5.34757C18.1256 5.08107 18.3134 4.83686 18.5799 4.80211Z" fill="#2E334C"/>
<path d="M15.0961 18.5816C15.1308 18.8481 14.943 19.0923 14.6765 19.1271C14.4758 19.1532 14.2713 19.1667 14.0639 19.1667H13.3186C13.0499 19.1667 12.832 18.9489 12.832 18.6801C12.832 18.4114 13.0499 18.1935 13.3186 18.1935H14.0639C14.2291 18.1935 14.3915 18.1828 14.5506 18.162C14.8171 18.1272 15.0613 18.3151 15.0961 18.5816Z" fill="#2E334C"/>
<path d="M12.832 1.31998C12.832 1.05124 13.0499 0.833374 13.3186 0.833374H14.0639C14.2713 0.833374 14.4758 0.846853 14.6765 0.873032C14.943 0.907794 15.1308 1.15201 15.0961 1.41849C15.0613 1.68499 14.8171 1.87284 14.5506 1.83808C14.3915 1.81732 14.2291 1.80659 14.0639 1.80659H13.3186C13.0499 1.80659 12.832 1.58873 12.832 1.31998Z" fill="#2E334C"/>
<path d="M4.83618 18.5816C4.87093 18.3151 5.11513 18.1272 5.38163 18.162C5.54072 18.1828 5.70313 18.1935 5.86834 18.1935H6.61359C6.88234 18.1935 7.10022 18.4114 7.10022 18.6801C7.10022 18.9489 6.88234 19.1667 6.61359 19.1667H5.86834C5.66097 19.1667 5.45647 19.1532 5.25576 19.1271C4.98926 19.0923 4.80138 18.8481 4.83618 18.5816Z" fill="#2E334C"/>
<path d="M5.86834 1.80659C5.70313 1.80659 5.54072 1.81732 5.38163 1.83808C5.11513 1.87284 4.87093 1.68499 4.83618 1.41849C4.80138 1.15201 4.98926 0.907794 5.25576 0.873032C5.45647 0.846853 5.66097 0.833374 5.86834 0.833374H6.61359C6.88234 0.833374 7.10022 1.05124 7.10022 1.31998C7.10022 1.58873 6.88234 1.80659 6.61359 1.80659H5.86834Z" fill="#2E334C"/>
</g>
</g>
<defs>
<clipPath id="clip0_4040_11666">
<rect width="20" height="20" fill="white"/>
</clipPath>
</defs>
</svg>
