<svg width="20" height="20" viewBox="0 0 20 20" fill="none" xmlns="http://www.w3.org/2000/svg">
<g clip-path="url(#clip0_4040_11689)">
<path d="M11.6672 5.83329L14.1672 8.33329M4.16715 4.99996V8.33329M15.8338 11.6666V15M8.33382 1.66663V3.33329M5.83382 6.66663H2.50049M17.5005 13.3333H14.1672M9.16715 2.49996H7.50049M18.0337 3.03333L16.967 1.96666C16.8732 1.87193 16.7616 1.79672 16.6386 1.7454C16.5156 1.69407 16.3836 1.66764 16.2503 1.66764C16.117 1.66764 15.9851 1.69407 15.8621 1.7454C15.739 1.79672 15.6274 1.87193 15.5337 1.96666L1.96699 15.5333C1.87225 15.6271 1.79705 15.7387 1.74572 15.8617C1.6944 15.9847 1.66797 16.1167 1.66797 16.25C1.66797 16.3833 1.6944 16.5153 1.74572 16.6383C1.79705 16.7613 1.87225 16.8729 1.96699 16.9667L3.03366 18.0333C3.12684 18.1291 3.23827 18.2052 3.36136 18.2572C3.48445 18.3091 3.61671 18.3359 3.75032 18.3359C3.88394 18.3359 4.01619 18.3091 4.13929 18.2572C4.26238 18.2052 4.37381 18.1291 4.46699 18.0333L18.0337 4.46666C18.1294 4.37348 18.2055 4.26205 18.2575 4.13896C18.3095 4.01587 18.3362 3.88361 18.3362 3.75C18.3362 3.61638 18.3095 3.48413 18.2575 3.36103C18.2055 3.23794 18.1294 3.12651 18.0337 3.03333Z" stroke="#2E334C" stroke-width="1.6" stroke-linecap="round" stroke-linejoin="round"/>
</g>
<defs>
<clipPath id="clip0_4040_11689">
<rect width="20" height="20" fill="white"/>
</clipPath>
</defs>
</svg>
